<svg xmlns="http://www.w3.org/2000/svg" width="512" height="512" viewBox="0 0 512 512" fill="none">
  <defs>
    <linearGradient id="brand-grad" x1="0%" y1="100%" x2="100%" y2="0%">
      <stop offset="0%" stop-color="#f59e0b" />
      <stop offset="100%" stop-color="#f43f5e" />
    </linearGradient>
  </defs>
  <rect width="512" height="512" rx="154" fill="url(#brand-grad)" />
  <g transform="translate(94, 94) scale(13.5)" stroke="#ffffff" stroke-width="1.8" stroke-linecap="round" stroke-linejoin="round">
    <path d="m16 2-2.3 2.3a3 3 0 0 0 0 4.2l1.8 1.8a3 3 0 0 0 4.2 0L22 8" />
    <path d="M15 15 3.3 3.3a4.2 4.2 0 0 0 0 6l7.3 7.3c.7.7 2 .7 2.8 0L15 15Zm0 0 7 7" />
    <path d="m2.1 21.8 6.4-6.3" />
    <path d="m19 5-7 7" />
  </g>
</svg>
